<mxfile host="app.diagrams.net" modified="2023-10-26T00:49:45.829Z" agent="Mozilla/5.0 (Windows NT 10.0; Win64; x64; rv:109.0) Gecko/20100101 Firefox/119.0" etag="ZOdF_AluyEsPu2O9hDQ9" version="22.0.8" type="github">
  <diagram name="Page-1" id="2YBvvXClWsGukQMizWep">
    <mxGraphModel dx="2284" dy="754" grid="1" gridSize="10" guides="1" tooltips="1" connect="1" arrows="1" fold="1" page="1" pageScale="1" pageWidth="850" pageHeight="1100" math="0" shadow="0">
      <root>
        <mxCell id="0" />
        <mxCell id="1" parent="0" />
        <mxCell id="02a1hrufcKxzjUFTl4vt-19" style="edgeStyle=orthogonalEdgeStyle;rounded=0;orthogonalLoop=1;jettySize=auto;html=1;exitX=1;exitY=0.5;exitDx=0;exitDy=0;entryX=0;entryY=0.5;entryDx=0;entryDy=0;" parent="1" source="02a1hrufcKxzjUFTl4vt-3" target="02a1hrufcKxzjUFTl4vt-4" edge="1">
          <mxGeometry relative="1" as="geometry" />
        </mxCell>
        <mxCell id="02a1hrufcKxzjUFTl4vt-3" value="&lt;div&gt;Login&lt;/div&gt;&lt;div&gt;Username&lt;/div&gt;&lt;div&gt;Password&lt;br&gt;&lt;/div&gt;" style="rounded=1;whiteSpace=wrap;html=1;" parent="1" vertex="1">
          <mxGeometry x="-720" y="40" width="90" height="70" as="geometry" />
        </mxCell>
        <mxCell id="02a1hrufcKxzjUFTl4vt-20" style="edgeStyle=orthogonalEdgeStyle;rounded=0;orthogonalLoop=1;jettySize=auto;html=1;exitX=0;exitY=0.5;exitDx=0;exitDy=0;" parent="1" source="02a1hrufcKxzjUFTl4vt-4" edge="1">
          <mxGeometry relative="1" as="geometry">
            <mxPoint x="-630" y="75" as="targetPoint" />
          </mxGeometry>
        </mxCell>
        <mxCell id="02a1hrufcKxzjUFTl4vt-24" style="edgeStyle=orthogonalEdgeStyle;rounded=0;orthogonalLoop=1;jettySize=auto;html=1;exitX=0.5;exitY=1;exitDx=0;exitDy=0;entryX=1;entryY=0;entryDx=0;entryDy=0;" parent="1" source="02a1hrufcKxzjUFTl4vt-4" target="02a1hrufcKxzjUFTl4vt-9" edge="1">
          <mxGeometry relative="1" as="geometry" />
        </mxCell>
        <mxCell id="02a1hrufcKxzjUFTl4vt-4" value="&lt;div&gt;SignUp&lt;/div&gt;&lt;div&gt;Email&lt;br&gt;&lt;/div&gt;&lt;div&gt;Username&lt;/div&gt;&lt;div&gt;Password&lt;br&gt;&lt;/div&gt;" style="rounded=1;whiteSpace=wrap;html=1;" parent="1" vertex="1">
          <mxGeometry x="-610" y="40" width="90" height="70" as="geometry" />
        </mxCell>
        <mxCell id="02a1hrufcKxzjUFTl4vt-17" style="edgeStyle=orthogonalEdgeStyle;rounded=0;orthogonalLoop=1;jettySize=auto;html=1;exitX=0.5;exitY=1;exitDx=0;exitDy=0;" parent="1" source="02a1hrufcKxzjUFTl4vt-9" target="02a1hrufcKxzjUFTl4vt-12" edge="1">
          <mxGeometry relative="1" as="geometry" />
        </mxCell>
        <mxCell id="02a1hrufcKxzjUFTl4vt-9" value="&lt;div align=&quot;center&quot;&gt;Select Character&lt;/div&gt;&lt;div align=&quot;center&quot;&gt;OR&amp;nbsp; &lt;br&gt;&lt;/div&gt;&lt;div align=&quot;center&quot;&gt;Create new Character&lt;/div&gt;&lt;div&gt;&lt;div align=&quot;center&quot;&gt;&lt;br&gt;&lt;/div&gt;&lt;br&gt;&lt;/div&gt;" style="rhombus;whiteSpace=wrap;html=1;align=right;" parent="1" vertex="1">
          <mxGeometry x="-680" y="110" width="120" height="110" as="geometry" />
        </mxCell>
        <mxCell id="02a1hrufcKxzjUFTl4vt-16" style="edgeStyle=orthogonalEdgeStyle;rounded=0;orthogonalLoop=1;jettySize=auto;html=1;" parent="1" source="02a1hrufcKxzjUFTl4vt-11" target="02a1hrufcKxzjUFTl4vt-15" edge="1">
          <mxGeometry relative="1" as="geometry" />
        </mxCell>
        <mxCell id="02a1hrufcKxzjUFTl4vt-11" value="&lt;div&gt;Character Race&lt;/div&gt;&lt;div&gt;List Races&lt;/div&gt;&lt;div&gt;Name&lt;/div&gt;&lt;div&gt;Speed&lt;/div&gt;&lt;div&gt;ability bonuses&lt;/div&gt;&lt;div&gt;age&lt;/div&gt;&lt;div&gt;size&lt;/div&gt;&lt;div&gt;languages&lt;/div&gt;&lt;div&gt;language desc&lt;/div&gt;&lt;div&gt;traits&lt;/div&gt;&lt;div&gt;&lt;br&gt;&lt;/div&gt;&lt;div&gt;if applicable&lt;/div&gt;&lt;div&gt;sub-races&lt;br&gt;&lt;/div&gt;&lt;div&gt;&lt;br&gt;&lt;/div&gt;" style="rounded=1;whiteSpace=wrap;html=1;" parent="1" vertex="1">
          <mxGeometry x="-420" y="20" width="120" height="340" as="geometry" />
        </mxCell>
        <mxCell id="02a1hrufcKxzjUFTl4vt-13" value="" style="endArrow=none;dashed=1;html=1;rounded=0;" parent="1" target="02a1hrufcKxzjUFTl4vt-12" edge="1">
          <mxGeometry width="50" height="50" relative="1" as="geometry">
            <mxPoint x="-720" y="280" as="sourcePoint" />
            <mxPoint x="-490" y="261" as="targetPoint" />
            <Array as="points" />
          </mxGeometry>
        </mxCell>
        <mxCell id="02a1hrufcKxzjUFTl4vt-12" value="&lt;div&gt;Select Character&lt;/div&gt;&lt;div&gt;List Characters attached to user&lt;br&gt;&lt;/div&gt;" style="rounded=1;whiteSpace=wrap;html=1;" parent="1" vertex="1">
          <mxGeometry x="-770" y="260" width="120" height="60" as="geometry" />
        </mxCell>
        <mxCell id="02a1hrufcKxzjUFTl4vt-26" style="edgeStyle=orthogonalEdgeStyle;rounded=0;orthogonalLoop=1;jettySize=auto;html=1;exitX=1;exitY=0.5;exitDx=0;exitDy=0;entryX=0;entryY=0.5;entryDx=0;entryDy=0;" parent="1" source="02a1hrufcKxzjUFTl4vt-15" target="02a1hrufcKxzjUFTl4vt-25" edge="1">
          <mxGeometry relative="1" as="geometry" />
        </mxCell>
        <mxCell id="02a1hrufcKxzjUFTl4vt-15" value="&lt;div&gt;Character Class&lt;/div&gt;&lt;div&gt;List Races&lt;/div&gt;&lt;div&gt;Name&lt;/div&gt;&lt;div&gt;Hit Dice&lt;br&gt;&lt;/div&gt;&lt;div&gt;&lt;br&gt;&lt;/div&gt;&lt;div&gt;&lt;br&gt;&lt;/div&gt;&lt;div&gt;USER PICKS&lt;/div&gt;&lt;div&gt;choice of {int} proficiency options&lt;br&gt;&lt;/div&gt;&lt;div&gt;&lt;br&gt;&lt;/div&gt;&lt;div&gt;List proficiencies&lt;br&gt;&lt;/div&gt;&lt;div&gt;Saving throws&lt;br&gt;&lt;/div&gt;&lt;div&gt;starting equipment&lt;br&gt;&lt;/div&gt;&lt;div&gt;&lt;br&gt;&lt;/div&gt;&lt;div&gt;&lt;br&gt;&lt;/div&gt;&lt;div&gt;USER PICKS&lt;br&gt;&lt;/div&gt;&lt;div&gt;choice of {int} starting equipment options&lt;br&gt;&lt;/div&gt;&lt;div&gt;if applicable&lt;/div&gt;&lt;div&gt;sub-class&lt;br&gt;&lt;/div&gt;&lt;div&gt;&lt;br&gt;&lt;/div&gt;" style="rounded=1;whiteSpace=wrap;html=1;" parent="1" vertex="1">
          <mxGeometry x="-260" y="20" width="120" height="340" as="geometry" />
        </mxCell>
        <mxCell id="02a1hrufcKxzjUFTl4vt-18" style="edgeStyle=orthogonalEdgeStyle;rounded=0;orthogonalLoop=1;jettySize=auto;html=1;exitX=0.5;exitY=1;exitDx=0;exitDy=0;entryX=0.05;entryY=0.482;entryDx=0;entryDy=0;entryPerimeter=0;" parent="1" source="02a1hrufcKxzjUFTl4vt-9" target="02a1hrufcKxzjUFTl4vt-11" edge="1">
          <mxGeometry relative="1" as="geometry" />
        </mxCell>
        <mxCell id="02a1hrufcKxzjUFTl4vt-23" style="edgeStyle=orthogonalEdgeStyle;rounded=0;orthogonalLoop=1;jettySize=auto;html=1;exitX=0.5;exitY=1;exitDx=0;exitDy=0;entryX=0.192;entryY=0.236;entryDx=0;entryDy=0;entryPerimeter=0;" parent="1" source="02a1hrufcKxzjUFTl4vt-3" target="02a1hrufcKxzjUFTl4vt-9" edge="1">
          <mxGeometry relative="1" as="geometry" />
        </mxCell>
        <mxCell id="02a1hrufcKxzjUFTl4vt-30" style="edgeStyle=orthogonalEdgeStyle;rounded=0;orthogonalLoop=1;jettySize=auto;html=1;exitX=1;exitY=0.5;exitDx=0;exitDy=0;entryX=0;entryY=0.5;entryDx=0;entryDy=0;" parent="1" source="02a1hrufcKxzjUFTl4vt-25" target="02a1hrufcKxzjUFTl4vt-29" edge="1">
          <mxGeometry relative="1" as="geometry" />
        </mxCell>
        <mxCell id="02a1hrufcKxzjUFTl4vt-25" value="&lt;div&gt;Ability Scores&lt;br&gt;&lt;/div&gt;&lt;div&gt;&lt;br&gt;&lt;/div&gt;&lt;div&gt;Give users the option to use normal DnD reccomended scores, and assign them&lt;/div&gt;&lt;div&gt;&lt;br&gt;&lt;/div&gt;&lt;div&gt;Give user the ability to roll, and assign them&lt;/div&gt;&lt;div&gt;&lt;br&gt;&lt;/div&gt;&lt;div&gt;Assign automatically&lt;br&gt;&lt;/div&gt;" style="rounded=1;whiteSpace=wrap;html=1;" parent="1" vertex="1">
          <mxGeometry x="-110" y="20" width="120" height="340" as="geometry" />
        </mxCell>
        <mxCell id="Y-s6kddwc_BUuv9eixKW-2" style="edgeStyle=orthogonalEdgeStyle;rounded=0;orthogonalLoop=1;jettySize=auto;html=1;exitX=1;exitY=0.5;exitDx=0;exitDy=0;entryX=0;entryY=0.5;entryDx=0;entryDy=0;" parent="1" source="02a1hrufcKxzjUFTl4vt-27" target="Y-s6kddwc_BUuv9eixKW-1" edge="1">
          <mxGeometry relative="1" as="geometry" />
        </mxCell>
        <mxCell id="02a1hrufcKxzjUFTl4vt-27" value="&lt;div&gt;Character name&lt;br&gt;&lt;/div&gt;&lt;div&gt;&lt;br&gt;&lt;/div&gt;&lt;div&gt;Fantasy name generator, maybe by race.&lt;/div&gt;&lt;div&gt;&lt;br&gt;&lt;/div&gt;&lt;div&gt;Users can pick their own name. &lt;br&gt;&lt;/div&gt;" style="rounded=1;whiteSpace=wrap;html=1;" parent="1" vertex="1">
          <mxGeometry x="190" y="20" width="120" height="340" as="geometry" />
        </mxCell>
        <mxCell id="02a1hrufcKxzjUFTl4vt-31" style="edgeStyle=orthogonalEdgeStyle;rounded=0;orthogonalLoop=1;jettySize=auto;html=1;exitX=1;exitY=0.5;exitDx=0;exitDy=0;entryX=0;entryY=0.5;entryDx=0;entryDy=0;" parent="1" source="02a1hrufcKxzjUFTl4vt-29" target="02a1hrufcKxzjUFTl4vt-27" edge="1">
          <mxGeometry relative="1" as="geometry" />
        </mxCell>
        <mxCell id="02a1hrufcKxzjUFTl4vt-29" value="&lt;div&gt;Alignment&lt;br&gt;&lt;/div&gt;&lt;div&gt;&lt;br&gt;&lt;/div&gt;&lt;div&gt;Give users the option to select their moral alignment&lt;br&gt;&lt;/div&gt;" style="rounded=1;whiteSpace=wrap;html=1;" parent="1" vertex="1">
          <mxGeometry x="40" y="20" width="120" height="340" as="geometry" />
        </mxCell>
        <mxCell id="Y-s6kddwc_BUuv9eixKW-7" style="edgeStyle=orthogonalEdgeStyle;rounded=0;orthogonalLoop=1;jettySize=auto;html=1;exitX=0.5;exitY=1;exitDx=0;exitDy=0;" parent="1" source="Y-s6kddwc_BUuv9eixKW-1" target="Y-s6kddwc_BUuv9eixKW-6" edge="1">
          <mxGeometry relative="1" as="geometry" />
        </mxCell>
        <mxCell id="Y-s6kddwc_BUuv9eixKW-1" value="&lt;div&gt;Homepage&lt;/div&gt;&lt;div&gt;&lt;br&gt;&lt;/div&gt;&lt;div&gt;AC&lt;/div&gt;&lt;div&gt;HP&lt;/div&gt;&lt;div&gt;Initiative&lt;/div&gt;&lt;div&gt;Proficiency Bonus&lt;/div&gt;&lt;div&gt;Hit Dice&lt;/div&gt;&lt;div&gt;Speed&lt;/div&gt;&lt;div&gt;XP&lt;/div&gt;&lt;div&gt;Weapons, or prepared spells?&lt;br&gt;&lt;/div&gt;" style="rounded=1;whiteSpace=wrap;html=1;" parent="1" vertex="1">
          <mxGeometry x="400" y="20" width="120" height="340" as="geometry" />
        </mxCell>
        <mxCell id="Y-s6kddwc_BUuv9eixKW-3" value="&lt;div&gt;Homepage&lt;/div&gt;&lt;div&gt;&lt;br&gt;&lt;/div&gt;&lt;div&gt;AC&lt;/div&gt;&lt;div&gt;HP&lt;/div&gt;&lt;div&gt;Initiative&lt;/div&gt;&lt;div&gt;Proficiency Bonus&lt;/div&gt;&lt;div&gt;Hit Dice&lt;/div&gt;&lt;div&gt;Speed&lt;/div&gt;&lt;div&gt;XP&lt;/div&gt;&lt;div&gt;Weapons, or prepared spells?&lt;br&gt;&lt;/div&gt;" style="rounded=1;whiteSpace=wrap;html=1;" parent="1" vertex="1">
          <mxGeometry x="-800" y="480" width="120" height="340" as="geometry" />
        </mxCell>
        <mxCell id="Y-s6kddwc_BUuv9eixKW-8" style="edgeStyle=orthogonalEdgeStyle;rounded=0;orthogonalLoop=1;jettySize=auto;html=1;exitX=0.5;exitY=1;exitDx=0;exitDy=0;entryX=0.5;entryY=0;entryDx=0;entryDy=0;" parent="1" source="Y-s6kddwc_BUuv9eixKW-6" target="Y-s6kddwc_BUuv9eixKW-3" edge="1">
          <mxGeometry relative="1" as="geometry" />
        </mxCell>
        <mxCell id="Y-s6kddwc_BUuv9eixKW-6" value="&lt;div&gt;Navbar&lt;/div&gt;&lt;div&gt;Attributes&lt;/div&gt;&lt;div&gt;Saving Throws&lt;/div&gt;&lt;div&gt;DICE SECTION?&lt;/div&gt;&lt;div&gt;Spells&lt;/div&gt;&lt;div&gt;Attacks&lt;/div&gt;&lt;div&gt;Profficiencies&lt;/div&gt;&lt;div&gt;Languages&lt;/div&gt;&lt;div&gt;Journal&lt;/div&gt;&lt;div&gt;Equipment&lt;br&gt;&lt;/div&gt;&lt;div&gt;&lt;br&gt;&lt;/div&gt;&lt;div&gt;&lt;br&gt;&lt;/div&gt;&lt;div&gt;10/25/2023&lt;/div&gt;&lt;div&gt;REdefined entire navigation system, for mobile. &lt;br&gt;&lt;/div&gt;" style="rounded=1;whiteSpace=wrap;html=1;" parent="1" vertex="1">
          <mxGeometry x="-250" y="420" width="410" height="230" as="geometry" />
        </mxCell>
      </root>
    </mxGraphModel>
  </diagram>
</mxfile>
